<svg width="190" height="32" viewBox="0 0 190 32" fill="none" xmlns="http://www.w3.org/2000/svg">
<path fill-rule="evenodd" clip-rule="evenodd" d="M43.5352 9.8623H45.5283V25.2853H43.5352V9.8623ZM59.1134 19.882V20.5115H50.249C50.4064 22.1902 51.9275 23.7115 54.0256 23.7115C56.1761 23.7115 57.33 22.0853 57.33 22.0853L58.5364 23.3968C58.5364 23.3968 56.858 25.5476 53.9731 25.5476C50.6687 25.5476 48.2559 23.0296 48.2559 19.7771C48.2559 16.5246 50.4064 14.0066 53.7109 14.0066C56.8055 14.0591 59.1134 16.3672 59.1134 19.882ZM57.1727 18.8328C57.1202 17.6263 56.0187 15.8427 53.7633 15.8427C51.3505 15.8427 50.3539 17.6787 50.3015 18.8328H57.1727ZM76.8422 25.2853V18.2034C76.8422 15.528 75.2686 14.0591 72.9607 13.9542C70.4955 13.9542 69.6562 16.0001 69.6562 16.0001C69.6562 16.0001 69.0268 13.9542 66.2468 13.9542C63.9914 13.9542 63.1522 15.8952 63.1522 15.8952V14.2689H61.3163V25.2329H63.3095V17.6263C63.3095 17.6263 64.0963 15.8427 65.7223 15.8427C67.191 15.8427 68.1351 16.7345 68.1351 18.5181V25.2853H70.1283V17.6788C70.1283 17.6788 70.8102 15.8952 72.4362 15.8427C73.9049 15.8427 74.849 16.7345 74.849 18.5181V25.2853H76.8422ZM90.3749 19.8295C90.3749 23.0295 87.9621 25.6 84.7626 25.6C81.5105 25.6 79.0453 23.082 79.0453 19.8295C79.0453 16.577 81.4581 14.059 84.7626 14.059C88.0146 14.059 90.3749 16.577 90.3749 19.8295ZM88.3818 19.8295C88.3818 17.6787 86.9131 15.8951 84.7101 15.8951C82.4547 15.8951 81.0384 17.6787 81.0384 19.8295C81.0384 21.9803 82.5071 23.7639 84.7101 23.7639C87.018 23.7115 88.3818 21.9803 88.3818 19.8295ZM102.072 25.2853V18.2034C102.072 15.528 100.079 14.0591 97.9283 13.9542C95.5155 13.9542 94.5189 15.7902 94.5189 15.7902V14.2689H92.6831V25.2329H94.6762V17.7312C94.6762 17.7312 95.6728 15.8952 97.4562 15.8952C98.9248 15.8952 100.079 16.7345 100.079 18.5706V25.2853H102.072ZM106.32 22.8722C107.107 22.8722 107.684 23.5017 107.684 24.2361C107.684 24.9706 107.055 25.6001 106.32 25.6001C105.586 25.6001 104.957 24.9706 104.957 24.2361C104.957 23.5017 105.534 22.8722 106.32 22.8722ZM125.99 25.2853V18.2034C125.99 15.528 124.416 14.0591 122.056 13.9542C119.591 13.9542 118.752 16.0001 118.752 16.0001C118.752 16.0001 118.122 13.9542 115.342 13.9542C113.087 13.9542 112.247 15.8952 112.247 15.8952V14.2689H110.412V25.128H112.352V17.5214C112.352 17.5214 113.139 15.7378 114.765 15.7378C116.234 15.7378 117.178 16.6296 117.178 18.4132V25.2329H119.171V17.6263C119.171 17.6263 119.958 15.8427 121.584 15.8427C123.053 15.8427 123.997 16.7345 123.997 18.5181V25.2853H125.99ZM138.159 18.046V25.2853H136.375V23.6591C136.375 23.6591 135.169 25.4952 132.704 25.4952C130.71 25.4952 128.612 24.1312 128.612 21.7181C128.612 19.5673 130.448 18.046 133.018 18.046C135.011 18.046 136.323 18.9902 136.323 18.9902V18.3607C136.323 16.0525 134.382 15.7378 133.543 15.7378C131.864 15.7378 130.238 16.682 130.238 16.682L129.399 15.0033C129.399 15.0033 131.078 13.8492 133.49 13.8492C136.585 14.0591 138.159 16.0525 138.159 18.046ZM136.113 22.1378V20.6165C136.113 20.6165 135.011 19.8296 133.281 19.8296C131.602 19.8296 130.501 20.6689 130.501 21.823C130.501 23.2919 131.812 23.8165 133.018 23.8165C134.959 23.8165 136.113 22.1378 136.113 22.1378ZM146.918 16.0525L147.705 14.2689C147.705 14.2689 146.971 14.0591 146.132 13.9542C144.033 13.9542 143.037 15.9476 143.037 15.9476V14.2689H141.201V25.1804H143.194V17.6788C143.194 17.6788 143.929 15.8427 145.712 15.8427C146.446 15.8427 146.918 16.0525 146.918 16.0525ZM151.691 19.9869V25.2853H149.698V9.8623H151.691V19.2L156.412 14.3738H159.035L153.894 19.5148L159.454 25.2853H156.674L151.691 19.9869ZM170.731 20.5115V19.882C170.731 16.3672 168.476 14.0591 165.329 14.0066C162.024 14.0066 159.874 16.5246 159.874 19.7771C159.874 23.0296 162.287 25.5476 165.591 25.5476C168.476 25.5476 170.155 23.3968 170.155 23.3968L168.948 22.0853C168.948 22.0853 167.794 23.7115 165.644 23.7115C163.546 23.7115 162.024 22.1902 161.867 20.5115H170.731ZM165.381 15.8427C167.637 15.8427 168.738 17.6263 168.791 18.8328H161.92C161.972 17.6787 162.969 15.8427 165.381 15.8427ZM173.197 11.0164H175.19V14.3738H178.599V16.1574H175.19V22.0853C175.19 23.1345 175.714 23.764 176.816 23.764C177.445 23.764 178.022 23.2918 178.022 23.2918L178.809 24.9181C177.865 25.4427 177.183 25.6 176.501 25.6C174.98 25.6 173.197 24.6033 173.197 22.1377V11.0164ZM184.893 23.764C182.743 23.764 181.589 21.9804 181.589 21.9804L180.12 23.2394C180.12 23.2394 181.746 25.5476 184.841 25.5476C186.992 25.5476 189.247 24.3935 189.247 22.3476C189.247 20.0918 187.516 19.3574 185.418 18.8853C183.582 18.5181 182.743 18.0459 182.743 17.2066C182.743 16.5246 183.477 15.8427 184.841 15.8427C186.52 15.8427 187.621 17.0492 187.621 17.0492L188.932 15.6853C188.932 15.6853 187.464 14.0066 184.841 14.0066C182.481 14.0066 180.855 15.5279 180.855 17.1541C180.855 19.2525 182.428 20.1443 184.841 20.6164C186.52 20.9312 187.306 21.4558 187.306 22.4C187.306 23.2918 186.047 23.764 184.893 23.764Z" fill="black"/>
<path d="M31.7021 0H27.1807V4.52144H31.7021V0Z" fill="#3CBF30"/>
<path d="M18.1377 4.52136H9.04284L0 13.5642H18.0857V31.65L27.1285 22.6071V4.52136H18.1377Z" fill="#F9EF00"/>
<path d="M0.0517578 13.5643V22.5552V31.702H18.1374V13.5643H0.0517578Z" fill="#F7FB2B"/>
</svg>
